<mxfile host="Electron" modified="2023-06-21T03:39:41.120Z" agent="Mozilla/5.0 (X11; Linux x86_64) AppleWebKit/537.36 (KHTML, like Gecko) draw.io/21.2.8 Chrome/112.0.5615.165 Electron/24.2.0 Safari/537.36" etag="y3ORFZ2PSYqBLRI4LUHh" version="21.2.8" type="device">
  <diagram name="Page-1" id="XL2CESVkQcurYCkJvWMF">
    <mxGraphModel dx="395" dy="699" grid="1" gridSize="10" guides="1" tooltips="1" connect="1" arrows="1" fold="1" page="1" pageScale="1" pageWidth="850" pageHeight="1100" math="0" shadow="0">
      <root>
        <mxCell id="0" />
        <mxCell id="1" parent="0" />
        <mxCell id="nyIXqRj5jkl184pKDK2w-3" style="edgeStyle=orthogonalEdgeStyle;rounded=0;orthogonalLoop=1;jettySize=auto;html=1;entryX=0.5;entryY=0;entryDx=0;entryDy=0;" edge="1" parent="1" source="nyIXqRj5jkl184pKDK2w-1" target="nyIXqRj5jkl184pKDK2w-2">
          <mxGeometry relative="1" as="geometry" />
        </mxCell>
        <mxCell id="nyIXqRj5jkl184pKDK2w-9" style="edgeStyle=orthogonalEdgeStyle;rounded=0;orthogonalLoop=1;jettySize=auto;html=1;entryX=0.5;entryY=1;entryDx=0;entryDy=0;" edge="1" parent="1" source="nyIXqRj5jkl184pKDK2w-1" target="nyIXqRj5jkl184pKDK2w-8">
          <mxGeometry relative="1" as="geometry" />
        </mxCell>
        <mxCell id="nyIXqRj5jkl184pKDK2w-1" value="TradingSystem" style="rounded=1;whiteSpace=wrap;html=1;" vertex="1" parent="1">
          <mxGeometry x="350" y="210" width="120" height="60" as="geometry" />
        </mxCell>
        <mxCell id="nyIXqRj5jkl184pKDK2w-7" style="edgeStyle=orthogonalEdgeStyle;rounded=0;orthogonalLoop=1;jettySize=auto;html=1;endArrow=block;endFill=1;" edge="1" parent="1" source="nyIXqRj5jkl184pKDK2w-2" target="nyIXqRj5jkl184pKDK2w-6">
          <mxGeometry relative="1" as="geometry" />
        </mxCell>
        <mxCell id="nyIXqRj5jkl184pKDK2w-2" value="Trading Strategies" style="rounded=1;whiteSpace=wrap;html=1;" vertex="1" parent="1">
          <mxGeometry x="350" y="380" width="120" height="60" as="geometry" />
        </mxCell>
        <mxCell id="nyIXqRj5jkl184pKDK2w-5" style="edgeStyle=orthogonalEdgeStyle;rounded=0;orthogonalLoop=1;jettySize=auto;html=1;entryX=1;entryY=0.5;entryDx=0;entryDy=0;" edge="1" parent="1" source="nyIXqRj5jkl184pKDK2w-4" target="nyIXqRj5jkl184pKDK2w-2">
          <mxGeometry relative="1" as="geometry" />
        </mxCell>
        <mxCell id="nyIXqRj5jkl184pKDK2w-4" value="Data Fetcher" style="rounded=1;whiteSpace=wrap;html=1;" vertex="1" parent="1">
          <mxGeometry x="610" y="380" width="120" height="60" as="geometry" />
        </mxCell>
        <mxCell id="nyIXqRj5jkl184pKDK2w-6" value="Technical Indicators" style="rounded=1;whiteSpace=wrap;html=1;" vertex="1" parent="1">
          <mxGeometry x="100" y="380" width="120" height="60" as="geometry" />
        </mxCell>
        <mxCell id="nyIXqRj5jkl184pKDK2w-8" value="Brokerages" style="rounded=1;whiteSpace=wrap;html=1;" vertex="1" parent="1">
          <mxGeometry x="350" y="40" width="120" height="60" as="geometry" />
        </mxCell>
      </root>
    </mxGraphModel>
  </diagram>
</mxfile>
